<svg data-v-423bf9ae="" xmlns="http://www.w3.org/2000/svg" viewBox="0 0 245 90" class="iconLeft"><!----><!----><!----><g data-v-423bf9ae="" id="c3346c2b-85d4-44af-9545-4bdef4e5ef54" fill="##31201" transform="matrix(2.1329540604962416,0,0,2.1329540604962416,143.50216405612787,35.881619217218145)"><path fill="#ffffff" d="M0.32 3.82L0.32 3.82L0.32 3.82Q0.32 2.72 0.76 1.98L0.76 1.98L0.76 1.98Q1.20 1.25 1.85 0.81L1.85 0.81L1.85 0.81Q2.49 0.38 3.23 0.20L3.23 0.20L3.23 0.20Q3.98 0.01 4.56 0.01L4.56 0.01L4.56 0.01Q5.04 0.01 5.34 0.08L5.34 0.08L5.34 0.08Q5.64 0.14 6.02 0.14L6.02 0.14L6.02 0.14Q6.23 0.14 6.39 0.13L6.39 0.13L6.39 0.13Q6.55 0.11 6.66 0.08L6.66 0.08L6.66 0.08Q6.79 0.06 6.87 0.01L6.87 0.01L6.87 0.01Q6.43 0.80 6.25 1.67L6.25 1.67L6.25 1.67Q6.08 2.53 6.15 3.22L6.15 3.22L6.02 3.22L6.02 3.22Q6.02 2.67 5.78 2.24L5.78 2.24L5.78 2.24Q5.53 1.81 5.12 1.50L5.12 1.50L5.12 1.50Q4.70 1.20 4.17 1.04L4.17 1.04L4.17 1.04Q3.63 0.87 3.02 0.87L3.02 0.87L3.02 0.87Q2.83 0.87 2.55 0.95L2.55 0.95L2.55 0.95Q2.27 1.04 2.02 1.23L2.02 1.23L2.02 1.23Q1.76 1.43 1.58 1.75L1.58 1.75L1.58 1.75Q1.40 2.07 1.40 2.55L1.40 2.55L1.40 2.55Q1.40 3.18 1.65 3.69L1.65 3.69L1.65 3.69Q1.90 4.20 2.31 4.64L2.31 4.64L2.31 4.64Q2.72 5.08 3.24 5.46L3.24 5.46L3.24 5.46Q3.77 5.84 4.32 6.22L4.32 6.22L4.32 6.22Q4.87 6.59 5.40 6.99L5.40 6.99L5.40 6.99Q5.92 7.39 6.33 7.85L6.33 7.85L6.33 7.85Q6.73 8.32 6.99 8.86L6.99 8.86L6.99 8.86Q7.24 9.41 7.24 10.09L7.24 10.09L7.24 10.09Q7.24 10.89 7.01 11.49L7.01 11.49L7.01 11.49Q6.79 12.10 6.43 12.53L6.43 12.53L6.43 12.53Q6.08 12.96 5.62 13.24L5.62 13.24L5.62 13.24Q5.17 13.52 4.69 13.69L4.69 13.69L4.69 13.69Q4.21 13.86 3.77 13.92L3.77 13.92L3.77 13.92Q3.32 13.99 2.98 13.99L2.98 13.99L2.98 13.99Q2.56 13.99 2.23 13.96L2.23 13.96L2.23 13.96Q1.90 13.94 1.64 13.92L1.64 13.92L1.64 13.92Q1.37 13.89 1.16 13.87L1.16 13.87L1.16 13.87Q0.94 13.85 0.73 13.85L0.73 13.85L0.73 13.85Q0.62 13.85 0.49 13.88L0.49 13.88L0.49 13.88Q0.36 13.92 0.25 13.94L0.25 13.94L0.25 13.94Q0.11 13.99 0 14.03L0 14.03L0 14.03Q0.29 13.73 0.45 13.23L0.45 13.23L0.45 13.23Q0.59 12.80 0.61 12.09L0.61 12.09L0.61 12.09Q0.63 11.38 0.36 10.33L0.36 10.33L0.59 10.33L0.59 10.33Q0.59 10.84 0.91 11.35L0.91 11.35L0.91 11.35Q1.23 11.86 1.76 12.28L1.76 12.28L1.76 12.28Q2.28 12.70 2.94 12.96L2.94 12.96L2.94 12.96Q3.60 13.22 4.26 13.22L4.26 13.22L4.26 13.22Q4.59 13.22 4.94 13.15L4.94 13.15L4.94 13.15Q5.29 13.09 5.58 12.90L5.58 12.90L5.58 12.90Q5.87 12.71 6.05 12.35L6.05 12.35L6.05 12.35Q6.23 11.98 6.23 11.37L6.23 11.37L6.23 11.37Q6.23 10.75 5.98 10.25L5.98 10.25L5.98 10.25Q5.73 9.76 5.31 9.34L5.31 9.34L5.31 9.34Q4.89 8.93 4.36 8.57L4.36 8.57L4.36 8.57Q3.84 8.20 3.28 7.84L3.28 7.84L3.28 7.84Q2.72 7.48 2.19 7.08L2.19 7.08L2.19 7.08Q1.67 6.69 1.25 6.22L1.25 6.22L1.25 6.22Q0.83 5.74 0.57 5.15L0.57 5.15L0.57 5.15Q0.32 4.56 0.32 3.82ZM9.86 9.66L9.86 9.66L9.86 9.66Q9.86 10.08 10.02 10.59L10.02 10.59L10.02 10.59Q10.18 11.10 10.56 11.54L10.56 11.54L10.56 11.54Q10.93 11.98 11.54 12.29L11.54 12.29L11.54 12.29Q12.15 12.59 13.03 12.59L13.03 12.59L13.03 12.59Q13.50 12.59 13.76 12.46L13.76 12.46L13.76 12.46Q14.03 12.33 14.15 12.14L14.15 12.14L14.15 12.14Q14.28 11.96 14.32 11.75L14.32 11.75L14.32 11.75Q14.35 11.54 14.35 11.35L14.35 11.35L14.35 11.35Q14.35 10.75 14.12 10.16L14.12 10.16L14.12 10.16Q13.89 9.58 13.48 9.11L13.48 9.11L13.48 9.11Q13.08 8.65 12.52 8.37L12.52 8.37L12.52 8.37Q11.97 8.09 11.33 8.09L11.33 8.09L11.33 8.09Q10.91 8.09 10.63 8.25L10.63 8.25L10.63 8.25Q10.35 8.41 10.17 8.66L10.17 8.66L10.17 8.66Q10.00 8.90 9.93 9.18L9.93 9.18L9.93 9.18Q9.86 9.45 9.86 9.66ZM12.94 7L12.94 7L12.94 7Q13.36 7 13.84 7.18L13.84 7.18L13.84 7.18Q14.32 7.36 14.73 7.73L14.73 7.73L14.73 7.73Q15.15 8.09 15.41 8.66L15.41 8.66L15.41 8.66Q15.68 9.23 15.68 9.98L15.68 9.98L15.68 9.98Q15.68 10.42 15.48 10.88L15.48 10.88L15.48 10.88Q15.27 11.34 14.95 11.79L14.95 11.79L14.95 11.79Q14.62 12.24 14.19 12.63L14.19 12.63L14.19 12.63Q13.76 13.03 13.31 13.34L13.31 13.34L13.31 13.34Q12.85 13.64 12.40 13.82L12.40 13.82L12.40 13.82Q11.94 14 11.56 14L11.56 14L11.56 14Q10.99 14 10.46 13.76L10.46 13.76L10.46 13.76Q9.94 13.52 9.53 13.12L9.53 13.12L9.53 13.12Q9.13 12.71 8.88 12.19L8.88 12.19L8.88 12.19Q8.64 11.66 8.64 11.07L8.64 11.07L8.64 11.07Q8.64 10.28 9.07 9.54L9.07 9.54L9.07 9.54Q9.51 8.81 10.15 8.24L10.15 8.24L10.15 8.24Q10.79 7.67 11.54 7.34L11.54 7.34L11.54 7.34Q12.29 7 12.94 7ZM19.04-6.83L19.04-6.83L19.04-6.83Q18.87-6.37 18.78-5.64L18.78-5.64L18.78-5.64Q18.69-4.90 18.65-4.00L18.65-4.00L18.65-4.00Q18.61-3.09 18.60-2.07L18.60-2.07L18.60-2.07Q18.59-1.04 18.59 0.01L18.59 0.01L18.59 0.01Q18.59 0.71 18.57 1.80L18.57 1.80L18.57 1.80Q18.55 2.88 18.53 4.11L18.53 4.11L18.53 4.11Q18.51 5.33 18.49 6.59L18.49 6.59L18.49 6.59Q18.48 7.84 18.49 8.90L18.49 8.90L18.49 8.90Q18.49 9.95 18.53 10.70L18.53 10.70L18.53 10.70Q18.56 11.45 18.65 11.65L18.65 11.65L18.65 11.65Q18.82 12.03 19.10 12.36L19.10 12.36L19.10 12.36Q19.38 12.68 19.91 12.73L19.91 12.73L19.91 12.73Q19.38 13.12 18.97 13.44L18.97 13.44L18.97 13.44Q18.56 13.76 18.23 14.10L18.23 14.10L18.23 14.10Q17.96 13.96 17.75 13.74L17.75 13.74L17.75 13.74Q17.54 13.52 17.39 13.29L17.39 13.29L17.39 13.29Q17.25 13.05 17.16 12.82L17.16 12.82L17.16 12.82Q17.07 12.59 17.05 12.40L17.05 12.40L17.05 12.40Q17.04 12.05 17.04 11.19L17.04 11.19L17.04 11.19Q17.04 10.33 17.04 9.19L17.04 9.19L17.04 9.19Q17.05 8.05 17.07 6.73L17.07 6.73L17.07 6.73Q17.09 5.42 17.11 4.16L17.11 4.16L17.11 4.16Q17.12 2.90 17.13 1.81L17.13 1.81L17.13 1.81Q17.14 0.71 17.14 0.01L17.14 0.01L17.14 0.01Q17.14-1.55 17.14-2.70L17.14-2.70L17.14-2.70Q17.15-3.84 17.13-4.66L17.13-4.66L17.13-4.66Q17.11-5.49 17.06-6.04L17.06-6.04L17.06-6.04Q17.01-6.59 16.91-6.99L16.91-6.99L16.91-6.99Q17.33-6.99 17.78-7.20L17.78-7.20L17.78-7.20Q18.23-7.41 18.70-7.71L18.70-7.71L18.70-7.71Q19.17-8.02 19.66-8.39L19.66-8.39L19.66-8.39Q20.16-8.75 20.68-9.06L20.68-9.06L20.68-9.06Q21.20-9.37 21.73-9.58L21.73-9.58L21.73-9.58Q22.26-9.79 22.81-9.79L22.81-9.79L22.81-9.79Q23.58-9.79 24.11-9.54L24.11-9.54L24.11-9.54Q24.65-9.30 24.99-8.90L24.99-8.90L24.99-8.90Q25.33-8.50 25.48-7.99L25.48-7.99L25.48-7.99Q25.63-7.48 25.63-6.93L25.63-6.93L25.63-6.93Q25.63-5.61 25.21-4.50L25.21-4.50L25.21-4.50Q24.79-3.39 24.10-2.46L24.10-2.46L24.10-2.46Q23.41-1.54 22.53-0.79L22.53-0.79L22.53-0.79Q21.64-0.04 20.72 0.55L20.72 0.55L20.72 0.55Q18.56 1.92 15.82 2.77L15.82 2.77L15.82 2.77Q18.52 1.90 20.65 0.53L20.65 0.53L20.65 0.53Q21.55-0.06 22.41-0.80L22.41-0.80L22.41-0.80Q23.28-1.55 23.97-2.48L23.97-2.48L23.97-2.48Q24.65-3.40 25.07-4.52L25.07-4.52L25.07-4.52Q25.48-5.63 25.48-6.93L25.48-6.93L25.48-6.93Q25.48-7.45 25.35-7.94L25.35-7.94L25.35-7.94Q25.23-8.43 24.92-8.81L24.92-8.81L24.92-8.81Q24.61-9.18 24.09-9.41L24.09-9.41L24.09-9.41Q23.58-9.63 22.81-9.63L22.81-9.63L22.81-9.63Q22.01-9.63 21.34-9.31L21.34-9.31L21.34-9.31Q20.68-8.99 20.20-8.53L20.20-8.53L20.20-8.53Q19.71-8.08 19.41-7.60L19.41-7.60L19.41-7.60Q19.11-7.13 19.04-6.83ZM27.68 9.52L27.68 9.52L27.68 9.52Q27.79 9.79 28 10.30L28 10.30L28 10.30Q28.21 10.82 28.44 11.35L28.44 11.35L28.44 11.35Q28.67 11.89 28.90 12.29L28.90 12.29L28.90 12.29Q29.12 12.70 29.27 12.73L29.27 12.73L29.27 12.73Q28.85 12.96 28.40 13.30L28.40 13.30L28.40 13.30Q27.94 13.64 27.61 14L27.61 14L27.61 14Q27.54 13.69 27.36 13.14L27.36 13.14L27.36 13.14Q27.17 12.59 26.87 11.93L26.87 11.93L26.87 11.93Q26.60 12.19 26.19 12.55L26.19 12.55L26.19 12.55Q25.79 12.91 25.33 13.23L25.33 13.23L25.33 13.23Q24.86 13.55 24.37 13.78L24.37 13.78L24.37 13.78Q23.87 14 23.42 14L23.42 14L23.42 14Q23.10 14 22.76 13.91L22.76 13.91L22.76 13.91Q22.41 13.82 22.13 13.64L22.13 13.64L22.13 13.64Q21.85 13.47 21.68 13.22L21.68 13.22L21.68 13.22Q21.50 12.96 21.50 12.64L21.50 12.64L21.50 12.64Q21.50 12.25 21.91 11.80L21.91 11.80L21.91 11.80Q22.32 11.35 22.92 10.91L22.92 10.91L22.92 10.91Q23.52 10.47 24.22 10.05L24.22 10.05L24.22 10.05Q24.92 9.63 25.51 9.27L25.51 9.27L25.51 9.27Q25.07 8.72 24.69 8.48L24.69 8.48L24.69 8.48Q24.30 8.23 23.84 8.23L23.84 8.23L23.84 8.23Q23.65 8.23 23.33 8.34L23.33 8.34L23.33 8.34Q23.02 8.46 22.72 8.60L22.72 8.60L22.72 8.60Q22.36 8.75 21.99 8.95L21.99 8.95L21.99 8.95Q22.78 8.41 23.51 7.98L23.51 7.98L23.51 7.98Q23.81 7.80 24.14 7.63L24.14 7.63L24.14 7.63Q24.46 7.46 24.76 7.32L24.76 7.32L24.76 7.32Q25.06 7.18 25.32 7.10L25.32 7.10L25.32 7.10Q25.58 7.01 25.76 7.01L25.76 7.01L25.76 7.01Q26.11 7.01 26.41 7.31L26.41 7.31L26.41 7.31Q26.71 7.62 26.96 8.03L26.96 8.03L26.96 8.03Q27.20 8.44 27.38 8.86L27.38 8.86L27.38 8.86Q27.55 9.28 27.68 9.52ZM24.93 12.64L24.93 12.64L24.93 12.64Q25.27 12.64 25.58 12.54L25.58 12.54L25.58 12.54Q25.89 12.45 26.12 12.26L26.12 12.26L26.12 12.26Q26.35 12.08 26.49 11.83L26.49 11.83L26.49 11.83Q26.63 11.58 26.63 11.28L26.63 11.28L26.63 11.28Q26.52 11.10 26.39 10.88L26.39 10.88L26.39 10.88Q26.26 10.67 26.15 10.47L26.15 10.47L26.15 10.47Q26.04 10.22 25.92 9.99L25.92 9.99L25.92 9.99Q25.80 9.76 25.68 9.60L25.68 9.60L25.68 9.60Q25.37 9.72 24.93 9.92L24.93 9.92L24.93 9.92Q24.49 10.12 24.08 10.39L24.08 10.39L24.08 10.39Q23.67 10.67 23.39 10.99L23.39 10.99L23.39 10.99Q23.10 11.31 23.10 11.66L23.10 11.66L23.10 11.66Q23.10 11.86 23.25 12.03L23.25 12.03L23.25 12.03Q23.39 12.21 23.64 12.34L23.64 12.34L23.64 12.34Q23.88 12.47 24.22 12.56L24.22 12.56L24.22 12.56Q24.56 12.64 24.93 12.64ZM35.24 6.99L35.24 6.99L35.24 6.99Q35.87 6.99 36.39 7.24L36.39 7.24L36.39 7.24Q36.90 7.49 37.27 7.90L37.27 7.90L37.27 7.90Q37.65 8.32 37.85 8.86L37.85 8.86L37.85 8.86Q38.05 9.39 38.05 9.97L38.05 9.97L38.05 9.97Q38.05 10.96 37.72 11.91L37.72 11.91L37.72 11.91Q37.38 12.85 36.76 13.58L36.76 13.58L36.76 13.58Q36.13 14.31 35.26 14.75L35.26 14.75L35.26 14.75Q34.38 15.19 33.31 15.19L33.31 15.19L33.31 15.19Q32.76 15.19 32.45 15.14L32.45 15.14L32.45 15.14Q32.13 15.09 31.84 15.04L31.84 15.04L31.84 15.04Q31.56 14.98 31.21 14.93L31.21 14.93L31.21 14.93Q30.87 14.88 30.27 14.88L30.27 14.88L30.27 14.88Q30.02 14.88 29.68 15.00L29.68 15.00L29.68 15.00Q29.34 15.12 29.04 15.37L29.04 15.37L29.04 15.37Q28.74 15.62 28.52 16.00L28.52 16.00L28.52 16.00Q28.31 16.38 28.31 16.88L28.31 16.88L28.31 16.88Q28.31 17.15 28.42 17.35L28.42 17.35L28.42 17.35Q28.53 17.54 28.72 17.70L28.72 17.70L28.72 17.70Q28.91 17.85 29.15 17.95L29.15 17.95L29.15 17.95Q29.39 18.06 29.64 18.13L29.64 18.13L29.64 18.13Q30.21 18.30 30.97 18.34L30.97 18.34L30.97 18.34Q30.17 18.31 29.55 18.16L29.55 18.16L29.55 18.16Q29.29 18.09 29.04 17.98L29.04 17.98L29.04 17.98Q28.78 17.88 28.59 17.72L28.59 17.72L28.59 17.72Q28.39 17.57 28.27 17.37L28.27 17.37L28.27 17.37Q28.15 17.16 28.15 16.88L28.15 16.88L28.15 16.88Q28.15 16.41 28.45 15.92L28.45 15.92L28.45 15.92Q28.74 15.43 29.23 15.04L29.23 15.04L29.23 15.04Q29.72 14.64 30.36 14.39L30.36 14.39L30.36 14.39Q31.00 14.14 31.68 14.14L31.68 14.14L31.68 14.14Q32.20 14.14 32.51 14.20L32.51 14.20L32.51 14.20Q32.82 14.25 33.10 14.31L33.10 14.31L33.10 14.31Q33.38 14.38 33.73 14.43L33.73 14.43L33.73 14.43Q34.08 14.48 34.68 14.48L34.68 14.48L34.68 14.48Q35.31 14.48 35.71 14.28L35.71 14.28L35.71 14.28Q36.12 14.08 36.35 13.70L36.35 13.70L36.35 13.70Q36.58 13.31 36.67 12.75L36.67 12.75L36.67 12.75Q36.76 12.18 36.76 11.42L36.76 11.42L36.76 11.42Q36.76 10.75 36.51 10.15L36.51 10.15L36.51 10.15Q36.26 9.55 35.83 9.09L35.83 9.09L35.83 9.09Q35.41 8.64 34.85 8.37L34.85 8.37L34.85 8.37Q34.30 8.11 33.70 8.11L33.70 8.11L33.70 8.11Q33.33 8.11 33.10 8.18L33.10 8.18L33.10 8.18Q32.86 8.25 32.65 8.44L32.65 8.44L32.65 8.44Q32.65 8.60 32.62 9.03L32.62 9.03L32.62 9.03Q32.59 9.46 32.59 10.11L32.59 10.11L32.59 10.11Q32.58 10.75 32.62 11.58L32.62 11.58L32.62 11.58Q32.66 12.40 32.82 13.34L32.82 13.34L32.82 13.34Q32.34 13.34 31.84 13.55L31.84 13.55L31.84 13.55Q31.35 13.76 30.97 14L30.97 14L30.97 14Q31.01 13.75 31.05 13.23L31.05 13.23L31.05 13.23Q31.09 12.71 31.12 12.09L31.12 12.09L31.12 12.09Q31.15 11.47 31.14 10.79L31.14 10.79L31.14 10.79Q31.14 10.12 31.09 9.55L31.09 9.55L31.09 9.55Q31.05 8.99 30.95 8.59L30.95 8.59L30.95 8.59Q30.84 8.19 30.66 8.11L30.66 8.11L30.66 8.11Q30.42 8.06 30.24 8.09L30.24 8.09L30.24 8.09Q30.16 8.11 30.09 8.13L30.09 8.13L30.09 8.13Q30.53 7.81 30.93 7.56L30.93 7.56L30.93 7.56Q31.26 7.35 31.61 7.17L31.61 7.17L31.61 7.17Q31.96 6.99 32.19 6.99L32.19 6.99L32.19 6.99Q32.34 6.99 32.43 7.02L32.43 7.02L32.43 7.02Q32.52 7.06 32.57 7.17L32.57 7.17L32.57 7.17Q32.62 7.29 32.63 7.50L32.63 7.50L32.63 7.50Q32.65 7.70 32.65 8.04L32.65 8.04L32.65 8.04Q33.32 7.55 33.98 7.27L33.98 7.27L33.98 7.27Q34.64 6.99 35.24 6.99ZM45.65 9.52L45.65 9.52L45.65 9.52Q45.77 9.79 45.98 10.30L45.98 10.30L45.98 10.30Q46.19 10.82 46.42 11.35L46.42 11.35L46.42 11.35Q46.65 11.89 46.87 12.29L46.87 12.29L46.87 12.29Q47.10 12.70 47.25 12.73L47.25 12.73L47.25 12.73Q46.83 12.96 46.38 13.30L46.38 13.30L46.38 13.30Q45.92 13.64 45.58 14L45.58 14L45.58 14Q45.51 13.69 45.33 13.14L45.33 13.14L45.33 13.14Q45.15 12.59 44.84 11.93L44.84 11.93L44.84 11.93Q44.58 12.19 44.17 12.55L44.17 12.55L44.17 12.55Q43.76 12.91 43.30 13.23L43.30 13.23L43.30 13.23Q42.84 13.55 42.34 13.78L42.34 13.78L42.34 13.78Q41.85 14 41.40 14L41.40 14L41.40 14Q41.08 14 40.73 13.91L40.73 13.91L40.73 13.91Q40.39 13.82 40.11 13.64L40.11 13.64L40.11 13.64Q39.83 13.47 39.66 13.22L39.66 13.22L39.66 13.22Q39.48 12.96 39.48 12.64L39.48 12.64L39.48 12.64Q39.48 12.25 39.89 11.80L39.89 11.80L39.89 11.80Q40.29 11.35 40.89 10.91L40.89 10.91L40.89 10.91Q41.50 10.47 42.20 10.05L42.20 10.05L42.20 10.05Q42.90 9.63 43.48 9.27L43.48 9.27L43.48 9.27Q43.05 8.72 42.67 8.48L42.67 8.48L42.67 8.48Q42.28 8.23 41.82 8.23L41.82 8.23L41.82 8.23Q41.62 8.23 41.31 8.34L41.31 8.34L41.31 8.34Q40.99 8.46 40.70 8.60L40.70 8.60L40.70 8.60Q40.33 8.75 39.97 8.95L39.97 8.95L39.97 8.95Q40.75 8.41 41.48 7.98L41.48 7.98L41.48 7.98Q41.79 7.80 42.11 7.63L42.11 7.63L42.11 7.63Q42.43 7.46 42.74 7.32L42.74 7.32L42.74 7.32Q43.04 7.18 43.30 7.10L43.30 7.10L43.30 7.10Q43.55 7.01 43.74 7.01L43.74 7.01L43.74 7.01Q44.09 7.01 44.39 7.31L44.39 7.31L44.39 7.31Q44.69 7.62 44.93 8.03L44.93 8.03L44.93 8.03Q45.18 8.44 45.35 8.86L45.35 8.86L45.35 8.86Q45.53 9.28 45.65 9.52ZM42.91 12.64L42.91 12.64L42.91 12.64Q43.25 12.64 43.55 12.54L43.55 12.54L43.55 12.54Q43.86 12.45 44.09 12.26L44.09 12.26L44.09 12.26Q44.32 12.08 44.46 11.83L44.46 11.83L44.46 11.83Q44.60 11.58 44.60 11.28L44.60 11.28L44.60 11.28Q44.49 11.10 44.37 10.88L44.37 10.88L44.37 10.88Q44.24 10.67 44.13 10.47L44.13 10.47L44.13 10.47Q44.02 10.22 43.90 9.99L43.90 9.99L43.90 9.99Q43.78 9.76 43.65 9.60L43.65 9.60L43.65 9.60Q43.34 9.72 42.90 9.92L42.90 9.92L42.90 9.92Q42.46 10.12 42.06 10.39L42.06 10.39L42.06 10.39Q41.65 10.67 41.36 10.99L41.36 10.99L41.36 10.99Q41.08 11.31 41.08 11.66L41.08 11.66L41.08 11.66Q41.08 11.86 41.22 12.03L41.22 12.03L41.22 12.03Q41.37 12.21 41.62 12.34L41.62 12.34L41.62 12.34Q41.86 12.47 42.20 12.56L42.20 12.56L42.20 12.56Q42.53 12.64 42.91 12.64Z"></path></g><defs data-v-423bf9ae=""><linearGradient data-v-423bf9ae="" gradientTransform="rotate(25)" id="486e1833-6bbd-4186-bee7-40d573d95758" x1="0%" y1="0%" x2="100%" y2="0%"><stop data-v-423bf9ae="" offset="0%" style="stop-color: rgb(192, 109, 105); stop-opacity: 1;"></stop><stop data-v-423bf9ae="" offset="100%" style="stop-color: rgb(210, 176, 92); stop-opacity: 1;"></stop></linearGradient></defs><g data-v-423bf9ae="" id="ecd6b5ac-04f3-45e5-a282-20a0211b2da0" transform="matrix(1.372246341930424,0,0,1.372246341930424,-6.6123170965211955,-23.405303428540037)" stroke="none" fill="url(#486e1833-6bbd-4186-bee7-40d573d95758)"><path d="M5 64.992s9.744-27.886 16.738-34.255c6.994-6.382 9.724-6.536 13.852-5.104 4.128 1.438 7.208 1.151 8.975-2.669 1.766-3.813 9.024-7.339 16.478-5.011 7.449 2.328 31.219 11.527 33.028 14.243 1.812 2.716-21.793 3.586-26.265 2.281-4.482-1.311-13.076 1.853-15.203 5.486-2.205 3.452-9.553 6.476-14.149 4.047-5.125-.642-12.834 5.151-13.196 7.392C24.899 53.652 5 64.992 5 64.992zm34.132 17.741c4.623.622 15.651-3.76 16.618-5.171.97-1.412 4.147-3.318 7.7-3.145 3.556.167 9.888-2.91 9.888-2.91C87.902 66.999 95 36.819 95 36.819c-27.854.435-36.905 11.473-36.905 11.473s-5.061 9.153-13.818 5.722c-15.725-2.872-37.18 15.273-37.18 15.273 5.794 4.836 27.423 12.817 32.035 13.446z"></path></g><!----></svg>